<svg id="Blocs_Logo" data-name="Blocs Logo" xmlns="http://www.w3.org/2000/svg" width="140" height="30" viewBox="0 0 140 30">
  <metadata><?xpacket begin="﻿" id="W5M0MpCehiHzreSzNTczkc9d"?>
<x:xmpmeta xmlns:x="adobe:ns:meta/" x:xmptk="Adobe XMP Core 5.6-c140 79.160451, 2017/05/06-01:08:21        ">
   <rdf:RDF xmlns:rdf="http://www.w3.org/1999/02/22-rdf-syntax-ns#">
      <rdf:Description rdf:about=""/>
   </rdf:RDF>
</x:xmpmeta>
                                                                                                    
                                                                                                    
                                                                                                    
                                                                                                    
                                                                                                    
                                                                                                    
                                                                                                    
                                                                                                    
                                                                                                    
                                                                                                    
                                                                                                    
                                                                                                    
                                                                                                    
                                                                                                    
                                                                                                    
                                                                                                    
                                                                                                    
                                                                                                    
                                                                                                    
                                                                                                    
                           
<?xpacket end="w"?></metadata>
<defs>
    <style>
      .cls-1 {
        fill: #8075f2;
      }

      .cls-2 {
        fill: #fff;
        fill-rule: evenodd;
      }
    </style>
  </defs>
  <rect id="dot" class="cls-1" x="132" y="21" width="3" height="3"/>
  <path id="Logo" class="cls-2" d="M31,7V21H45v3H28V7h3ZM53.5,7h17A2.5,2.5,0,0,1,73,9.5v12A2.5,2.5,0,0,1,70.5,24h-17A2.5,2.5,0,0,1,51,21.5V9.5A2.5,2.5,0,0,1,53.5,7Zm1.75,3h13.5A1.25,1.25,0,0,1,70,11.25v8.5A1.25,1.25,0,0,1,68.75,21H55.25A1.25,1.25,0,0,1,54,19.75v-8.5A1.25,1.25,0,0,1,55.25,10ZM124,24H105V21h18a1.248,1.248,0,0,0,1-1V18a1.035,1.035,0,0,0-1-1H108a2.692,2.692,0,0,1-3-3V10a2.794,2.794,0,0,1,3-3h19v3H109a1.247,1.247,0,0,0-1,1v2a1.1,1.1,0,0,0,1,1h15a2.666,2.666,0,0,1,3,3v4A2.655,2.655,0,0,1,124,24ZM99,10H83.25A1.25,1.25,0,0,0,82,11.25v8.5A1.25,1.25,0,0,0,83.25,21H99v3H81.5A2.5,2.5,0,0,1,79,21.5V9.5A2.5,2.5,0,0,1,81.5,7H99v3ZM19,24H0V10H0V7H17a2.794,2.794,0,0,1,3,3v4c0,0.05-.009.093-0.01,0.142A2.746,2.746,0,0,1,22,17v4A2.692,2.692,0,0,1,19,24ZM17,11a1.247,1.247,0,0,0-1-1H3v4H16a1.1,1.1,0,0,0,1-1V11Zm2,7a1.248,1.248,0,0,0-1-1H3v4H18a1.1,1.1,0,0,0,1-1V18Z"/>
</svg>
